<svg width="336" height="344" viewBox="0 0 336 344" fill="none" xmlns="http://www.w3.org/2000/svg">
<path d="M228.618 93.1449L211.507 109.47C221.3 119.98 227.286 134.045 227.286 149.5C227.286 163.25 222.548 175.9 214.606 185.926L231.937 202.11C243.843 187.83 251 169.496 251 149.5C251 127.71 242.501 107.893 228.618 93.1449Z" fill="black" fill-opacity="0.25"/>
<path d="M143.814 70.5574C109.772 80.8484 85 112.299 85 149.5C85 189.586 113.763 222.994 151.893 230.448C157.234 231.453 162.757 231.97 168.463 231.999C193.998 231.86 216.804 220.26 231.937 202.11L214.606 185.925C203.751 199.629 186.909 208.429 168 208.429C135.257 208.429 108.714 182.045 108.714 149.5C108.714 116.955 135.257 90.5714 168 90.5714C185.194 90.5714 200.678 97.8468 211.507 109.469L228.618 93.1447C213.57 77.16 192.198 67.1312 168.467 67.0013C159.832 67.045 151.615 68.2304 143.814 70.5574Z" fill="#000014"/>
<path fill-rule="evenodd" clip-rule="evenodd" d="M121 44C121 19.6995 142.043 0 168 0C193.957 0 215 19.6995 215 44V88H191.5V44C191.5 31.8497 180.979 22 168 22C155.021 22 144.5 31.8497 144.5 44V88H121V44Z" fill="#000014"/>
<path d="M0 300.858C0 297.595 0.576542 294.383 1.72963 291.221C2.93285 288.058 4.66247 285.197 6.91851 282.637C9.17454 280.077 11.9319 278.045 15.1906 276.539C18.4494 274.983 22.1593 274.205 26.3204 274.205C31.1834 274.205 35.4198 275.284 39.0294 277.442C42.6391 279.601 45.3212 282.411 47.0759 285.875L39.1046 291.371C38.2022 289.363 37.024 287.782 35.5702 286.628C34.1163 285.473 32.537 284.645 30.8325 284.143C29.1781 283.641 27.5738 283.39 26.0196 283.39C23.4126 283.39 21.1315 283.917 19.1763 284.971C17.2712 286.025 15.6669 287.406 14.3634 289.112C13.0599 290.819 12.0823 292.726 11.4306 294.835C10.829 296.943 10.5282 299.051 10.5282 301.159C10.5282 304.321 11.1799 307.283 12.4834 310.043C13.7869 312.754 15.6168 314.963 17.9731 316.669C20.3294 318.376 23.0617 319.229 26.17 319.229C27.7743 319.229 29.4287 318.953 31.1333 318.401C32.888 317.849 34.4923 316.97 35.9462 315.766C37.4001 314.561 38.5281 313.005 39.3302 311.098L47.8279 315.992C46.725 318.652 44.9954 320.911 42.6391 322.768C40.2828 324.575 37.6257 325.98 34.6677 326.984C31.7098 327.938 28.777 328.415 25.8692 328.415C22.059 328.415 18.5747 327.637 15.4162 326.081C12.3079 324.474 9.60068 322.366 7.29451 319.756C4.98834 317.096 3.18352 314.134 1.88003 310.872C0.626676 307.559 0 304.221 0 300.858Z" fill="#000014"/>
<path d="M53.81 283.014V273H63.8869V283.014H53.81ZM53.81 327.963V288.51H63.8869V327.963H53.81Z" fill="#000014"/>
<path d="M96.5906 328.716C93.4823 328.716 90.7751 328.013 88.4689 326.608C86.1627 325.202 84.3579 323.345 83.0544 321.036V344H72.9775V288.51H81.776V295.286C83.2299 292.977 85.1099 291.17 87.4161 289.865C89.7724 288.51 92.4295 287.832 95.3874 287.832C98.9469 287.832 102.105 288.761 104.863 290.618C107.62 292.425 109.801 294.885 111.405 297.997C113.01 301.059 113.812 304.447 113.812 308.161C113.812 312.026 113.06 315.515 111.556 318.627C110.102 321.689 108.071 324.148 105.464 326.005C102.908 327.812 99.9496 328.716 96.5906 328.716ZM93.2066 320.133C95.2621 320.133 97.0418 319.58 98.5458 318.476C100.1 317.322 101.303 315.841 102.156 314.034C103.058 312.177 103.509 310.219 103.509 308.161C103.509 305.953 103.033 303.97 102.08 302.213C101.128 300.406 99.8243 299.001 98.1698 297.997C96.5656 296.943 94.7106 296.416 92.605 296.416C90.6999 296.416 88.7948 297.043 86.8897 298.298C84.9846 299.553 83.7062 301.134 83.0544 303.041V312.302C83.9568 314.511 85.3355 316.368 87.1905 317.874C89.0454 319.38 91.0508 320.133 93.2066 320.133Z" fill="#000014"/>
<path d="M157.262 327.963H147.185V305.827C147.185 302.765 146.584 300.481 145.38 298.976C144.227 297.47 142.623 296.717 140.567 296.717C139.314 296.717 138.011 297.068 136.657 297.771C135.354 298.474 134.15 299.452 133.047 300.707C131.995 301.912 131.217 303.317 130.716 304.924V327.963H120.639V273H130.716V295.813C132.17 293.304 134.15 291.346 136.657 289.941C139.164 288.535 141.896 287.832 144.854 287.832C148.213 287.832 150.795 288.585 152.6 290.091C154.404 291.597 155.633 293.53 156.284 295.889C156.936 298.248 157.262 300.732 157.262 303.343V327.963Z" fill="#000014"/>
<path d="M184.298 328.716C180.037 328.716 176.352 327.787 173.244 325.93C170.185 324.073 167.804 321.613 166.099 318.551C164.395 315.439 163.543 312.076 163.543 308.462C163.543 304.748 164.37 301.335 166.024 298.223C167.729 295.06 170.135 292.551 173.244 290.694C176.352 288.786 180.062 287.832 184.373 287.832C188.685 287.832 192.37 288.786 195.428 290.694C198.486 292.551 200.817 295.035 202.422 298.147C204.076 301.209 204.903 304.522 204.903 308.086C204.903 309.391 204.828 310.52 204.678 311.474H174.221C174.472 314.536 175.6 316.945 177.605 318.702C179.661 320.459 182.017 321.337 184.674 321.337C186.679 321.337 188.559 320.86 190.314 319.907C192.119 318.903 193.347 317.598 193.999 315.992L202.647 318.401C201.193 321.413 198.862 323.897 195.653 325.855C192.445 327.762 188.66 328.716 184.298 328.716ZM173.996 305.074H194.601C194.3 302.113 193.172 299.729 191.217 297.922C189.312 296.064 186.98 295.136 184.223 295.136C181.516 295.136 179.184 296.064 177.229 297.922C175.324 299.729 174.246 302.113 173.996 305.074Z" fill="#000014"/>
<path d="M234.505 297.244C231.447 297.244 228.714 297.846 226.308 299.051C223.902 300.205 222.172 301.887 221.119 304.095V327.963H211.042V288.51H220.292V296.943C221.645 294.232 223.4 292.099 225.556 290.543C227.762 288.987 230.068 288.134 232.474 287.983C233.527 287.983 234.204 288.008 234.505 288.058V297.244Z" fill="#000014"/>
<path d="M263.887 328.339C259.977 328.339 256.417 327.586 253.209 326.081C250.05 324.575 247.318 322.542 245.012 319.982C242.756 317.372 241.001 314.461 239.748 311.248C238.494 307.986 237.868 304.648 237.868 301.234C237.868 297.671 238.52 294.282 239.823 291.07C241.126 287.807 242.956 284.921 245.313 282.411C247.669 279.852 250.426 277.844 253.585 276.388C256.793 274.882 260.303 274.129 264.113 274.129C267.973 274.129 271.483 274.907 274.641 276.463C277.85 278.019 280.582 280.103 282.838 282.713C285.144 285.323 286.899 288.259 288.102 291.522C289.355 294.734 289.982 298.022 289.982 301.385C289.982 304.899 289.33 308.287 288.027 311.549C286.723 314.762 284.894 317.648 282.537 320.208C280.231 322.718 277.474 324.7 274.265 326.156C271.107 327.612 267.647 328.339 263.887 328.339ZM248.396 301.234C248.396 304.346 248.998 307.258 250.201 309.968C251.454 312.679 253.234 314.887 255.54 316.594C257.896 318.3 260.704 319.154 263.963 319.154C267.322 319.154 270.154 318.275 272.46 316.519C274.766 314.762 276.521 312.503 277.724 309.742C278.928 306.982 279.529 304.146 279.529 301.234C279.529 298.122 278.903 295.211 277.649 292.501C276.396 289.79 274.591 287.607 272.235 285.95C269.929 284.244 267.171 283.39 263.963 283.39C260.604 283.39 257.771 284.269 255.465 286.025C253.159 287.782 251.404 290.041 250.201 292.802C248.998 295.512 248.396 298.323 248.396 301.234Z" fill="#000014"/>
<path d="M329.533 288.51C329.082 288.008 328.129 287.356 326.675 286.552C325.221 285.699 323.466 284.946 321.411 284.294C319.406 283.591 317.325 283.24 315.169 283.24C309.504 283.24 306.672 285.247 306.672 289.263C306.672 290.719 307.123 291.873 308.025 292.726C308.928 293.58 310.281 294.308 312.086 294.91C313.891 295.512 316.147 296.165 318.854 296.867C322.364 297.771 325.397 298.825 327.953 300.03C330.56 301.234 332.541 302.841 333.894 304.848C335.298 306.806 336 309.416 336 312.679C336 316.493 335.073 319.58 333.218 321.94C331.413 324.248 329.006 325.93 325.998 326.984C322.99 328.038 319.732 328.565 316.222 328.565C312.211 328.565 308.226 327.963 304.265 326.758C300.355 325.503 296.87 323.797 293.812 321.638L298.399 312.679C298.851 313.13 299.653 313.733 300.806 314.486C301.959 315.188 303.363 315.916 305.017 316.669C306.672 317.372 308.476 317.974 310.432 318.476C312.387 318.978 314.367 319.229 316.372 319.229C322.088 319.229 324.945 317.397 324.945 313.733C324.945 312.177 324.369 310.922 323.216 309.968C322.063 309.014 320.433 308.211 318.328 307.559C316.272 306.906 313.866 306.179 311.108 305.375C307.699 304.422 304.867 303.368 302.611 302.213C300.405 301.008 298.75 299.528 297.647 297.771C296.544 295.964 295.993 293.68 295.993 290.919C295.993 287.255 296.845 284.193 298.55 281.734C300.305 279.224 302.661 277.342 305.619 276.087C308.577 274.782 311.86 274.129 315.47 274.129C319.18 274.129 322.639 274.732 325.848 275.936C329.056 277.141 331.814 278.521 334.12 280.077L329.533 288.51Z" fill="#000014"/>
</svg>
