<svg version="1.2" baseProfile="tiny-ps" xmlns="http://www.w3.org/2000/svg" viewBox="0 0 271 542" width="271" height="542">
	<title>phone-logo-svg</title>
	<style>
		tspan { white-space:pre }
		.shp0 { fill: #3f3d56 } 
		.shp1 { fill: #ffffff } 
		.shp2 { fill: #6c63ff } 
	</style>
	<path id="Layer" class="shp0" d="M270.22 128.78L267.24 128.78L267.24 47.21C267.24 41.01 266.02 34.87 263.65 29.14C261.27 23.42 257.8 18.21 253.41 13.83C249.03 9.44 243.82 5.97 238.1 3.59C232.37 1.22 226.23 0 220.03 0L47.21 0C41.01 0 34.87 1.22 29.14 3.59C23.42 5.97 18.21 9.44 13.83 13.83C9.44 18.21 5.97 23.42 3.59 29.14C1.22 34.87 0 41.01 0 47.21L0 494.71C0 500.91 1.22 507.05 3.59 512.78C5.97 518.51 9.44 523.71 13.83 528.1C18.21 532.48 23.42 535.96 29.14 538.33C34.87 540.7 41.01 541.92 47.21 541.92L220.03 541.92C226.23 541.92 232.37 540.7 238.1 538.33C243.82 535.96 249.03 532.48 253.41 528.1C257.8 523.71 261.27 518.51 263.65 512.78C266.02 507.05 267.24 500.91 267.24 494.71L267.24 186.84L270.22 186.84L270.22 128.78Z" />
	<path id="Layer" class="shp1" d="M221.93 12.28L199.38 12.28C200.41 14.83 200.81 17.59 200.53 20.32C200.25 23.05 199.3 25.67 197.77 27.95C196.24 30.23 194.17 32.1 191.74 33.39C189.32 34.68 186.61 35.36 183.87 35.36L84.86 35.36C82.11 35.36 79.41 34.68 76.99 33.39C74.56 32.1 72.49 30.23 70.96 27.95C69.43 25.67 68.48 23.05 68.2 20.32C67.92 17.59 68.32 14.83 69.35 12.28L48.28 12.28C43.65 12.28 39.07 13.19 34.79 14.97C30.51 16.74 26.63 19.34 23.35 22.61C20.08 25.88 17.48 29.77 15.71 34.05C13.94 38.32 13.03 42.91 13.03 47.54L13.03 494.38C13.03 499.01 13.94 503.6 15.71 507.88C17.48 512.15 20.08 516.04 23.35 519.31C26.63 522.59 30.51 525.18 34.79 526.96C39.07 528.73 43.65 529.64 48.28 529.64L221.93 529.64C226.56 529.64 231.15 528.73 235.43 526.96C239.7 525.18 243.59 522.59 246.86 519.31C250.14 516.04 252.73 512.15 254.51 507.88C256.28 503.6 257.19 499.01 257.19 494.38L257.19 494.38L257.19 47.54C257.19 42.91 256.28 38.32 254.51 34.05C252.73 29.77 250.14 25.88 246.86 22.61C243.59 19.34 239.7 16.74 235.43 14.97C231.15 13.19 226.56 12.28 221.93 12.28L221.93 12.28Z" />
	<path id="b5dcbba4-f290-467d-a612-e64d8f6895fb" class="shp2" d="M135.11 345.68C88.41 345.68 50.66 307.93 50.66 261.23C50.66 214.53 88.41 176.79 135.11 176.79C181.81 176.79 219.55 214.53 219.55 261.23C219.55 307.93 181.81 345.68 135.11 345.68Z" />
	<path id="Layer" class="shp1" d="M160.13 267L139.13 288.63C138.9 288.86 138.65 289.07 138.38 289.25C138.11 289.43 137.83 289.58 137.53 289.7C137.23 289.82 136.92 289.91 136.6 289.97C136.28 290.03 135.96 290.05 135.63 290.04L135.56 290.04C135.24 290.05 134.91 290.03 134.59 289.97C134.28 289.91 133.96 289.82 133.66 289.7C133.36 289.58 133.07 289.43 132.8 289.25C132.53 289.07 132.28 288.86 132.05 288.63L111.06 267C110.99 266.92 110.91 266.85 110.84 266.78C110.43 266.34 110.1 265.82 109.89 265.25C109.68 264.68 109.58 264.07 109.6 263.46C109.62 262.86 109.76 262.26 110.01 261.7C110.26 261.15 110.62 260.65 111.06 260.23C111.54 259.79 112.09 259.44 112.7 259.19C113.3 258.95 113.95 258.83 114.6 258.83C115.25 258.83 115.9 258.95 116.51 259.19C117.11 259.44 117.67 259.79 118.14 260.23L130.58 273.23L130.58 239.71C130.64 238.42 131.19 237.2 132.13 236.31C133.06 235.42 134.3 234.92 135.6 234.92C136.89 234.92 138.13 235.42 139.07 236.31C140 237.2 140.55 238.42 140.61 239.71L140.61 273.23L153.04 260.23C153.52 259.79 154.07 259.43 154.68 259.19C155.29 258.95 155.93 258.83 156.59 258.83C157.24 258.83 157.89 258.95 158.49 259.19C159.1 259.43 159.66 259.79 160.13 260.23C160.2 260.3 160.27 260.37 160.35 260.45C160.77 260.9 161.09 261.42 161.3 261.99C161.51 262.56 161.61 263.17 161.59 263.77C161.57 264.38 161.43 264.98 161.18 265.53C160.93 266.09 160.57 266.59 160.13 267L160.13 267Z" />
</svg>