<svg version="1.2" baseProfile="tiny-ps" xmlns="http://www.w3.org/2000/svg" viewBox="0 0 74 64" width="74" height="64">
	<title>search-svg</title>
	<style>
		tspan { white-space:pre }
		.shp0 { fill: #3ea1db } 
	</style>
	<path id="Layer" class="shp0" d="M62.31 53.15C62.11 53.44 61.85 53.69 61.55 53.88C61.25 54.07 60.91 54.2 60.56 54.26C60.21 54.33 59.85 54.32 59.5 54.24C59.15 54.16 58.82 54.02 58.53 53.81L43.73 43.51C43.14 43.1 42.73 42.47 42.61 41.76C42.48 41.05 42.65 40.32 43.06 39.73C43.47 39.14 44.1 38.74 44.81 38.62C45.52 38.49 46.25 38.65 46.84 39.06L61.65 49.37C61.94 49.57 62.19 49.83 62.38 50.13C62.57 50.43 62.7 50.77 62.76 51.12C62.82 51.47 62.82 51.83 62.74 52.18C62.66 52.53 62.52 52.86 62.31 53.15L62.31 53.15Z" />
	<path id="Layer" fill-rule="evenodd" class="shp0" d="M45.5 41.44C41.03 47.83 33.16 50.89 25.55 49.2C17.94 47.51 12.1 41.41 10.75 33.74C9.39 26.06 12.8 18.33 19.37 14.14C25.94 9.95 34.39 10.14 40.77 14.61C42.84 16.06 44.61 17.91 45.96 20.04C47.32 22.18 48.25 24.56 48.69 27.05C49.12 29.54 49.07 32.09 48.52 34.56C47.98 37.03 46.95 39.37 45.5 41.44ZM17.88 22.1C14.53 26.89 14.39 33.23 17.53 38.16C20.67 43.08 26.47 45.64 32.23 44.62C37.98 43.61 42.56 39.22 43.83 33.52C45.09 27.81 42.8 21.91 38.01 18.55C36.45 17.47 34.7 16.7 32.85 16.29C30.99 15.88 29.08 15.84 27.21 16.17C25.34 16.5 23.56 17.19 21.96 18.21C20.36 19.23 18.97 20.55 17.88 22.1L17.88 22.1Z" />
</svg>